<?xml version="1.0" standalone="no"?><!DOCTYPE svg PUBLIC "-//W3C//DTD SVG 1.1//EN" "http://www.w3.org/Graphics/SVG/1.1/DTD/svg11.dtd"><svg height="1500" node-id="1" sillyvg="true" template-height="1500" template-width="1726" version="1.1" viewBox="0 0 1726 1500" width="1726" xmlns="http://www.w3.org/2000/svg" xmlns:xlink="http://www.w3.org/1999/xlink"><defs node-id="51"><linearGradient gradientUnits="objectBoundingBox" id="未命名的渐变_94" node-id="5" spreadMethod="pad" x1="466.95" x2="858.95" y1="783" y2="783"><stop offset="0" stop-color="#ebf4ff"></stop><stop offset="1" stop-color="#ebe1ff"></stop></linearGradient><linearGradient gradientUnits="objectBoundingBox" id="未命名的渐变_49" node-id="8" spreadMethod="pad" x1="858.45" x2="988.92" y1="785" y2="785"><stop offset="0" stop-color="#ebf4ff"></stop><stop offset="1" stop-color="#ebebff"></stop></linearGradient><linearGradient gradientUnits="objectBoundingBox" id="未命名的渐变_49-2" node-id="11" spreadMethod="pad" x1="230.04" x2="475.05" y1="901.2" y2="901.2"><stop offset="0" stop-color="#ebf4ff"></stop><stop offset="1" stop-color="#ebebff"></stop></linearGradient><linearGradient gradientUnits="objectBoundingBox" id="未命名的渐变_17" node-id="12" spreadMethod="pad" x1="-301.31" x2="-298.72" y1="2179.31" y2="2179.31"><stop offset="0" stop-color="#eaeff5"></stop><stop offset="0.99" stop-color="#dee1f0"></stop></linearGradient><linearGradient gradientUnits="objectBoundingBox" id="未命名的渐变_23" node-id="15" spreadMethod="pad" x1="-326.82" x2="-324.26" y1="2178.61" y2="2178.61"><stop offset="0" stop-color="#548fff"></stop><stop offset="1" stop-color="#949fff"></stop></linearGradient><linearGradient gradientUnits="objectBoundingBox" id="未命名的渐变_49-3" node-id="18" spreadMethod="pad" x1="529.4" x2="607.11" y1="994.82" y2="994.82"><stop offset="0" stop-color="#ebf4ff"></stop><stop offset="1" stop-color="#ebebff"></stop></linearGradient><linearGradient gradientUnits="objectBoundingBox" id="未命名的渐变_23-2" node-id="19" spreadMethod="pad" x1="-317.55" x2="-314.99" y1="2180.14" y2="2180.14"><stop offset="0" stop-color="#548fff"></stop><stop offset="1" stop-color="#949fff"></stop></linearGradient><linearGradient gradientUnits="objectBoundingBox" id="未命名的渐变_49-4" node-id="20" spreadMethod="pad" x1="1097.93" x2="1258.89" y1="862.88" y2="862.88"><stop offset="0" stop-color="#ebf4ff"></stop><stop offset="1" stop-color="#ebebff"></stop></linearGradient></defs><path d="M 1498.00 1180.00 L 220.00 1180.00 L 216.90 1179.80 L 211.20 1178.20 L 208.70 1176.90 L 204.10 1173.40 L 200.60 1168.80 L 199.30 1166.30 L 197.70 1160.60 L 197.50 1157.50 L 198.30 1151.50 L 199.30 1148.70 L 202.20 1143.70 L 206.20 1139.70 L 208.70 1138.10 L 214.00 1135.80 L 216.90 1135.20 L 220.00 1135.00 L 1498.00 1135.00 L 1501.10 1135.20 L 1504.00 1135.80 L 1506.80 1136.80 L 1509.30 1138.10 L 1513.90 1141.60 L 1517.40 1146.20 L 1518.70 1148.70 L 1520.30 1154.40 L 1520.50 1157.50 L 1520.30 1160.60 L 1518.70 1166.30 L 1517.40 1168.80 L 1513.90 1173.40 L 1509.30 1176.90 L 1506.80 1178.20 L 1504.00 1179.20 L 1501.10 1179.80 L 1498.00 1180.00 Z" fill="none" node-id="103" stroke="#d3dcf4" stroke-linecap="butt" stroke-width="20" target-height="45" target-width="1323" target-x="197.5" target-y="1135"></path><path d="M 1133.50 1221.00 L 1208.30 1221.00 L 1255.70 1220.50 L 1267.60 1220.90 L 1287.00 1222.70 L 1294.90 1224.20 L 1298.70 1225.40 L 1302.20 1226.90 L 1305.50 1229.60 L 1306.30 1231.00 L 1307.00 1234.20 L 1306.20 1238.60 L 1301.60 1249.50 L 1299.00 1257.60 L 1298.40 1261.80 L 1298.30 1266.30 L 1298.80 1269.50 L 1299.80 1272.10 L 1301.20 1274.30 L 1303.00 1276.20 L 1305.10 1277.80 L 1307.50 1279.20 L 1311.50 1280.80 L 1315.80 1281.90 L 1328.90 1283.90 L 1345.50 1284.90 L 1355.50 1284.80 L 1395.50 1283.00 L 1397.70 1282.70 L 1399.50 1282.00 L 1401.00 1281.00 L 1403.20 1278.10 L 1404.10 1274.60 L 1403.80 1271.10 L 1403.20 1269.40 L 1401.00 1266.70 L 1399.50 1265.80 L 1397.70 1265.20 L 1395.50 1265.00 L 1359.50 1266.60 L 1339.50 1266.60 L 1323.60 1265.10 L 1313.50 1262.00 L 1315.90 1264.90 L 1316.40 1265.80 L 1316.30 1266.30 L 1316.50 1261.20 L 1317.30 1258.40 L 1323.40 1243.50 L 1324.60 1239.70 L 1325.20 1235.60 L 1325.10 1231.40 L 1324.60 1227.70 L 1323.50 1224.40 L 1321.90 1221.40 L 1319.90 1218.70 L 1317.50 1216.20 L 1311.90 1212.20 L 1308.70 1210.60 L 1303.60 1208.50 L 1298.30 1206.90 L 1287.80 1204.90 L 1276.00 1203.70 L 1264.30 1203.00 L 1252.50 1202.80 L 1133.50 1203.00 L 1131.20 1203.30 L 1129.40 1203.90 L 1127.90 1204.90 L 1126.60 1206.20 L 1125.10 1209.30 L 1124.80 1212.90 L 1125.70 1216.30 L 1127.90 1219.10 L 1129.40 1220.10 L 1131.20 1220.70 L 1133.50 1221.00 Z" fill="#d3dcf4" fill-rule="nonzero" node-id="105" stroke="none" target-height="82.099976" target-width="279.29993" target-x="1124.8" target-y="1202.8"></path><path d="M 385.50 1229.00 L 645.50 1229.00 L 647.70 1228.70 L 649.50 1228.10 L 651.00 1227.10 L 652.30 1225.80 L 653.80 1222.70 L 654.10 1219.10 L 653.20 1215.70 L 651.00 1212.90 L 649.50 1211.90 L 647.70 1211.30 L 645.50 1211.00 L 385.50 1211.00 L 383.20 1211.30 L 381.40 1211.90 L 379.90 1212.90 L 378.60 1214.20 L 377.10 1217.30 L 376.80 1220.90 L 377.70 1224.30 L 379.90 1227.10 L 381.40 1228.10 L 383.20 1228.70 L 385.50 1229.00 Z" fill="#d3dcf4" fill-rule="nonzero" node-id="107" stroke="none" target-height="18" target-width="277.3" target-x="376.8" target-y="1211"></path><path d="M 484.00 476.50 L 525.30 467.40 L 582.10 454.30 L 643.90 439.00 L 684.20 427.80 L 704.20 421.20 L 711.00 418.50 L 718.10 415.10 L 736.00 405.20 L 767.60 385.40 L 810.80 356.00 L 859.00 321.50 L 859.00 1244.50 L 811.20 1218.10 L 771.00 1196.80 L 744.10 1183.50 L 737.30 1180.40 L 724.50 1175.60 L 721.00 1173.90 L 708.40 1166.10 L 698.80 1159.30 L 688.80 1151.60 L 677.30 1142.30 L 665.70 1132.40 L 653.40 1121.20 L 641.20 1109.60 L 620.90 1088.60 L 605.70 1071.00 L 591.70 1053.00 L 585.50 1044.00 L 579.70 1034.80 L 574.70 1025.80 L 570.40 1017.10 L 567.50 1010.40 L 565.10 1003.90 L 563.30 997.60 L 562.00 991.50 L 558.30 966.70 L 554.40 934.20 L 546.20 854.00 L 538.40 767.00 L 529.20 659.80 L 526.00 627.50 L 523.20 617.50 L 517.30 601.10 L 509.40 580.10 L 490.60 533.00 L 467.00 475.50 Z" fill="url(#未命名的渐变_94)" fill-rule="nonzero" node-id="109" stroke="none" target-height="923" target-width="392" target-x="467" target-y="321.5"></path><path d="M 1233.50 478.50 L 1192.20 469.40 L 1135.30 456.30 L 1073.60 441.00 L 1033.20 429.80 L 1013.20 423.20 L 1006.50 420.50 L 999.30 417.10 L 981.50 407.20 L 949.90 387.40 L 906.70 358.00 L 858.50 323.50 L 858.50 1246.50 L 906.30 1220.10 L 946.50 1198.80 L 973.30 1185.50 L 986.40 1179.90 L 992.90 1177.60 L 996.50 1175.90 L 1009.00 1168.10 L 1018.60 1161.30 L 1028.70 1153.60 L 1040.10 1144.30 L 1051.70 1134.40 L 1064.00 1123.20 L 1076.30 1111.60 L 1096.50 1090.60 L 1111.80 1073.00 L 1125.70 1055.00 L 1131.90 1046.00 L 1137.70 1036.80 L 1142.80 1027.80 L 1147.10 1019.10 L 1150.00 1012.40 L 1152.30 1005.90 L 1154.10 999.60 L 1155.50 993.50 L 1159.20 968.70 L 1163.10 936.20 L 1171.30 856.00 L 1179.10 769.00 L 1188.30 661.80 L 1191.50 629.50 L 1194.30 619.50 L 1200.10 603.10 L 1208.10 582.10 L 1226.80 535.00 L 1250.50 477.50 Z" fill="#d7d7f4" fill-rule="nonzero" node-id="111" stroke="none" target-height="923" target-width="392" target-x="858.5" target-y="323.5"></path><path d="M 859.90 314.50 L 859.00 314.50 L 853.10 322.60 L 847.20 329.10 L 837.20 339.00 L 822.60 351.20 L 813.60 357.90 L 802.90 365.20 L 791.90 372.20 L 779.10 379.70 L 764.20 387.70 L 740.80 399.00 L 712.30 411.10 L 681.80 422.40 L 664.40 428.20 L 645.50 434.00 L 626.90 439.30 L 606.90 444.60 L 585.30 449.80 L 561.90 455.00 L 539.10 459.60 L 514.50 464.10 L 488.20 468.40 L 460.00 472.50 L 476.20 503.20 L 489.40 530.70 L 495.10 543.60 L 500.10 555.60 L 508.90 579.40 L 512.50 590.30 L 518.50 612.20 L 520.90 622.60 L 524.00 638.30 L 526.40 654.00 L 528.30 669.80 L 531.00 702.80 L 536.70 802.70 L 541.00 853.50 L 543.50 876.30 L 546.20 897.00 L 549.10 915.70 L 552.40 934.40 L 556.00 951.30 L 559.60 966.50 L 563.80 981.60 L 568.10 995.30 L 572.40 1007.60 L 577.30 1019.80 L 582.20 1031.00 L 587.30 1041.10 L 592.70 1051.10 L 598.20 1060.30 L 603.90 1068.80 L 609.80 1077.20 L 622.00 1092.70 L 641.50 1114.60 L 669.20 1143.80 L 676.00 1150.20 L 682.60 1155.70 L 689.50 1160.90 L 702.90 1169.60 L 713.20 1175.20 L 734.30 1184.90 L 769.20 1199.80 L 781.80 1205.70 L 795.60 1212.90 L 814.70 1223.90 L 825.30 1230.70 L 835.60 1237.90 L 846.90 1246.10 L 859.00 1255.50 L 860.00 1255.50 L 872.10 1246.10 L 883.40 1237.90 L 893.70 1230.70 L 914.20 1218.00 L 923.40 1212.90 L 937.20 1205.70 L 949.70 1199.80 L 984.70 1184.90 L 1005.70 1175.20 L 1016.00 1169.60 L 1022.70 1165.50 L 1036.30 1155.70 L 1042.90 1150.20 L 1049.80 1143.80 L 1056.90 1136.50 L 1087.30 1103.80 L 1103.10 1085.10 L 1115.10 1068.80 L 1120.70 1060.30 L 1126.20 1051.10 L 1131.70 1041.10 L 1136.70 1031.00 L 1141.60 1019.80 L 1146.50 1007.60 L 1150.80 995.30 L 1155.10 981.60 L 1159.30 966.50 L 1162.90 951.30 L 1166.50 934.40 L 1169.80 915.70 L 1172.70 897.00 L 1175.40 876.30 L 1177.90 853.50 L 1182.20 802.70 L 1187.90 702.80 L 1189.10 686.10 L 1190.60 669.80 L 1192.50 654.00 L 1194.90 638.30 L 1198.00 622.60 L 1203.20 601.40 L 1206.40 590.30 L 1214.10 567.80 L 1218.80 555.60 L 1229.50 530.70 L 1236.00 516.90 L 1250.40 488.40 L 1258.90 472.50 L 1230.70 468.40 L 1204.40 464.10 L 1179.80 459.60 L 1157.00 455.00 L 1133.60 449.80 L 1112.00 444.60 L 1091.90 439.30 L 1073.40 434.00 L 1054.50 428.20 L 1037.10 422.40 L 1006.50 411.10 L 978.10 399.00 L 954.60 387.70 L 939.70 379.70 L 926.90 372.20 L 916.00 365.20 L 905.20 357.90 L 896.30 351.20 L 881.70 339.00 L 871.60 329.10 L 865.80 322.60 L 859.90 314.50 Z" fill="none" node-id="113" stroke="#5d83ff" stroke-linecap="butt" stroke-width="24" target-height="941" target-width="798.9" target-x="460" target-y="314.5"></path><path d="M 858.40 503.80 L 866.90 504.00 L 875.40 504.90 L 883.80 506.30 L 898.10 510.00 L 909.40 514.20 L 918.30 518.50 L 926.50 523.20 L 936.10 529.80 L 944.60 537.00 L 953.70 546.10 L 961.50 555.60 L 966.10 562.20 L 970.20 569.00 L 973.80 575.90 L 977.00 582.90 L 979.80 590.20 L 982.10 597.60 L 983.90 605.00 L 985.30 612.60 L 986.20 620.20 L 986.70 627.80 L 986.70 635.50 L 986.30 643.10 L 985.40 650.80 L 984.10 658.30 L 982.30 665.80 L 980.10 673.30 L 977.40 680.60 L 974.20 687.70 L 970.60 694.70 L 964.60 704.30 L 956.20 715.30 L 951.40 720.70 L 946.30 725.80 L 940.90 730.60 L 935.20 735.10 L 929.30 739.30 L 922.20 743.60 L 915.00 747.50 L 907.60 750.80 L 899.90 753.70 L 892.20 756.00 L 892.00 842.30 L 930.70 842.30 L 934.60 842.60 L 938.30 843.20 L 941.90 844.30 L 945.30 845.70 L 948.60 847.50 L 951.70 849.70 L 954.50 852.10 L 957.10 855.00 L 959.50 858.30 L 962.20 863.50 L 963.70 867.80 L 964.70 873.10 L 964.90 876.80 L 964.60 880.80 L 963.90 884.60 L 962.90 888.20 L 961.40 891.70 L 959.50 895.00 L 957.40 898.10 L 954.90 900.90 L 952.10 903.40 L 949.00 905.60 L 945.70 907.50 L 942.10 909.00 L 936.30 910.50 L 930.60 911.00 L 891.80 911.00 L 891.70 950.00 L 954.70 950.10 L 961.90 950.90 L 968.60 953.10 L 972.70 955.30 L 976.50 958.00 L 979.90 961.20 L 984.10 966.90 L 987.10 973.50 L 988.10 977.00 L 988.70 980.60 L 988.80 987.60 L 988.00 992.20 L 986.60 996.70 L 984.60 1000.90 L 980.60 1006.70 L 978.10 1009.30 L 973.10 1013.20 L 970.30 1014.80 L 964.30 1017.20 L 957.90 1018.50 L 954.60 1018.70 L 891.50 1018.50 L 891.40 1035.50 L 890.50 1040.50 L 888.60 1046.00 L 885.90 1050.90 L 881.90 1055.80 L 876.90 1060.00 L 871.50 1063.10 L 866.80 1064.80 L 861.90 1065.80 L 857.30 1066.10 L 852.60 1065.80 L 848.10 1064.90 L 844.00 1063.40 L 840.00 1061.40 L 836.40 1058.90 L 833.10 1056.10 L 830.20 1052.80 L 827.80 1049.20 L 825.70 1045.20 L 824.30 1041.00 L 823.40 1036.60 L 823.00 1031.90 L 823.60 755.90 L 816.30 753.60 L 809.20 750.90 L 802.30 747.80 L 795.80 744.40 L 789.50 740.70 L 783.30 736.50 L 777.50 732.10 L 772.00 727.30 L 766.80 722.30 L 761.90 717.00 L 756.10 710.00 L 750.90 702.60 L 746.30 694.90 L 742.10 686.90 L 739.20 680.20 L 736.70 673.40 L 734.60 666.50 L 732.80 659.40 L 731.50 652.10 L 730.50 644.80 L 730.00 637.50 L 730.00 630.00 L 730.30 622.40 L 731.10 614.70 L 732.40 607.10 L 734.10 599.70 L 736.20 592.50 L 738.70 585.50 L 741.60 578.80 L 744.90 572.10 L 748.50 565.80 L 752.40 559.70 L 756.70 553.80 L 761.20 548.20 L 767.40 541.60 L 774.00 535.40 L 781.00 529.70 L 788.40 524.50 L 794.60 520.70 L 801.00 517.30 L 807.60 514.30 L 814.30 511.60 L 821.40 509.20 L 828.50 507.30 L 835.70 505.80 L 843.10 504.70 L 850.70 504.00 L 858.40 503.80 M 858.60 692.00 L 864.30 691.70 L 869.90 690.90 L 875.50 689.60 L 883.60 686.50 L 888.80 683.80 L 893.80 680.50 L 900.30 674.90 L 904.10 670.90 L 907.50 666.50 L 910.50 661.80 L 913.00 656.90 L 915.00 651.80 L 916.60 646.50 L 917.60 641.00 L 918.20 635.40 L 918.20 629.80 L 917.80 624.30 L 916.80 618.80 L 915.30 613.50 L 913.30 608.40 L 910.90 603.40 L 908.00 598.70 L 904.70 594.30 L 900.90 590.10 L 894.00 584.10 L 889.00 580.80 L 883.40 577.90 L 875.50 575.00 L 869.90 573.70 L 864.30 572.90 L 858.50 572.60 L 853.50 572.90 L 844.20 574.50 L 839.80 575.80 L 834.00 578.20 L 828.60 581.00 L 823.60 584.40 L 818.90 588.30 L 814.60 592.60 L 810.80 597.30 L 807.50 602.40 L 804.70 607.80 L 802.50 613.60 L 801.20 618.10 L 799.70 627.40 L 799.50 632.30 L 799.70 637.20 L 801.20 646.60 L 802.50 651.10 L 804.70 656.80 L 807.50 662.30 L 810.80 667.40 L 814.60 672.10 L 818.90 676.40 L 823.60 680.30 L 828.60 683.60 L 834.00 686.50 L 839.80 688.80 L 844.20 690.20 L 853.50 691.80 L 858.50 692.10 M 858.40 483.90 L 849.80 484.10 L 841.40 484.90 L 833.10 486.00 L 825.10 487.70 L 817.10 489.70 L 809.30 492.20 L 801.70 495.10 L 794.30 498.40 L 787.10 502.10 L 780.10 506.20 L 773.40 510.60 L 766.90 515.40 L 760.70 520.50 L 754.80 526.00 L 749.20 531.80 L 743.90 537.90 L 738.90 544.30 L 734.30 550.90 L 730.00 557.80 L 726.10 565.10 L 722.50 572.50 L 719.40 580.10 L 716.70 587.90 L 714.50 596.10 L 712.60 604.50 L 711.20 612.90 L 710.40 621.30 L 710.00 629.60 L 710.00 637.90 L 710.60 646.00 L 711.60 654.20 L 713.00 662.20 L 714.80 670.10 L 717.10 677.80 L 719.80 685.50 L 722.90 692.90 L 726.40 700.20 L 730.20 707.20 L 734.50 714.10 L 739.10 720.70 L 744.10 727.10 L 749.40 733.10 L 755.00 738.90 L 761.00 744.40 L 767.40 749.70 L 774.00 754.50 L 780.90 759.00 L 788.10 763.10 L 795.70 766.90 L 803.60 770.30 L 803.00 1032.00 L 803.20 1037.60 L 804.10 1043.00 L 805.40 1048.10 L 807.20 1053.10 L 809.50 1057.90 L 812.20 1062.30 L 815.30 1066.50 L 818.80 1070.40 L 822.60 1073.90 L 826.80 1077.00 L 831.20 1079.70 L 836.00 1082.10 L 841.00 1083.90 L 846.10 1085.20 L 851.50 1086.10 L 857.10 1086.40 L 861.80 1086.20 L 867.20 1085.60 L 872.00 1084.50 L 879.60 1081.70 L 886.10 1078.20 L 892.10 1073.90 L 898.00 1068.00 L 902.70 1061.70 L 906.40 1054.70 L 909.00 1047.40 L 910.50 1039.10 L 954.00 1039.20 L 959.30 1038.90 L 964.50 1038.10 L 969.70 1036.80 L 974.60 1035.00 L 979.40 1032.80 L 986.40 1028.40 L 991.90 1023.80 L 995.80 1019.70 L 999.20 1015.30 L 1002.20 1010.50 L 1004.60 1005.60 L 1006.50 1000.40 L 1007.90 995.00 L 1008.70 989.50 L 1008.90 983.90 L 1008.60 978.30 L 1007.60 972.70 L 1006.10 967.10 L 1003.90 961.70 L 1001.30 956.70 L 998.20 952.00 L 994.60 947.70 L 990.70 943.80 L 986.40 940.30 L 981.70 937.30 L 976.80 934.80 L 971.50 932.80 L 966.10 931.30 L 960.50 930.40 L 954.70 930.10 L 940.70 930.10 L 947.40 928.40 L 951.70 926.80 L 955.80 924.80 L 963.50 920.00 L 970.10 914.00 L 973.00 910.60 L 975.70 907.00 L 980.00 899.20 L 983.10 890.70 L 984.10 886.20 L 984.90 876.90 L 984.70 871.00 L 983.40 863.90 L 980.70 855.70 L 978.40 851.00 L 976.40 847.60 L 972.60 842.40 L 969.00 838.40 L 965.10 834.80 L 960.80 831.70 L 956.30 828.90 L 951.50 826.70 L 946.60 824.90 L 941.40 823.60 L 936.20 822.80 L 912.00 822.40 L 912.10 770.60 L 925.70 764.50 L 932.20 761.00 L 940.40 756.00 L 952.20 747.30 L 963.10 737.40 L 972.40 727.20 L 981.20 715.60 L 988.00 704.50 L 992.20 696.40 L 995.90 688.20 L 999.00 679.80 L 1001.60 671.10 L 1003.70 662.50 L 1005.20 653.70 L 1006.30 644.90 L 1006.70 636.10 L 1006.70 627.20 L 1006.20 618.40 L 1005.10 609.60 L 1003.50 600.90 L 1001.30 592.30 L 998.70 583.80 L 995.50 575.30 L 991.80 567.10 L 987.60 559.20 L 982.80 551.40 L 977.60 543.70 L 968.50 532.70 L 958.10 522.20 L 949.30 514.90 L 940.30 508.40 L 930.20 502.30 L 917.70 496.20 L 907.60 492.30 L 897.40 489.20 L 881.80 485.90 L 874.10 484.90 L 866.20 484.20 L 858.30 484.00 Z M 858.50 672.10 L 854.40 671.80 L 846.80 670.10 L 843.20 668.80 L 838.60 666.40 L 834.50 663.60 L 830.70 660.20 L 827.40 656.40 L 824.70 652.20 L 822.40 647.60 L 820.10 640.30 L 819.50 636.40 L 819.30 632.30 L 819.50 628.20 L 820.10 624.30 L 822.40 617.00 L 824.70 612.40 L 827.40 608.30 L 830.70 604.40 L 834.50 601.10 L 838.60 598.20 L 843.20 595.90 L 850.50 593.50 L 854.40 592.90 L 858.40 592.60 L 862.30 592.80 L 866.10 593.30 L 873.30 595.50 L 877.20 597.20 L 882.10 600.40 L 885.30 603.00 L 889.30 607.20 L 893.60 613.60 L 895.20 617.20 L 896.50 620.80 L 898.00 628.40 L 898.00 636.30 L 896.50 643.90 L 893.50 651.10 L 891.50 654.40 L 889.20 657.50 L 883.70 663.00 L 880.20 665.50 L 876.80 667.50 L 873.20 669.20 L 869.50 670.40 L 865.90 671.30 L 858.50 672.00 Z" fill="#fe9f39" fill-rule="nonzero" node-id="115" stroke="none" target-height="602.5" target-width="298.90002" target-x="710" target-y="483.9"></path><path d="M 857.20 1066.30 L 861.90 1066.00 L 866.30 1065.10 L 870.50 1063.60 L 874.50 1061.60 L 878.10 1059.20 L 881.40 1056.30 L 884.30 1053.00 L 886.80 1049.40 L 888.80 1045.40 L 890.30 1041.20 L 891.20 1036.80 L 891.50 1032.10 L 891.50 1018.50 L 954.50 1018.70 L 959.30 1018.30 L 963.70 1017.50 L 967.90 1016.00 L 971.90 1014.00 L 975.50 1011.60 L 978.80 1008.70 L 981.70 1005.40 L 984.20 1001.80 L 986.20 997.80 L 987.70 993.60 L 988.60 989.20 L 988.90 984.50 L 988.60 979.70 L 987.70 975.30 L 986.20 971.10 L 984.30 967.10 L 981.80 963.50 L 978.90 960.20 L 975.60 957.30 L 972.00 954.80 L 968.00 952.80 L 963.80 951.30 L 959.40 950.40 L 954.70 950.10 L 891.70 949.90 L 891.80 910.90 L 930.50 911.00 L 935.20 910.70 L 939.70 909.80 L 943.90 908.40 L 947.90 906.40 L 951.50 903.90 L 954.80 901.00 L 957.70 897.80 L 960.20 894.10 L 962.20 890.20 L 963.60 886.00 L 964.60 881.50 L 964.90 876.80 L 964.60 872.10 L 963.70 867.70 L 962.20 863.50 L 960.20 859.50 L 957.80 855.90 L 954.90 852.50 L 951.60 849.60 L 948.00 847.20 L 944.00 845.20 L 939.80 843.70 L 935.40 842.80 L 930.70 842.50 L 892.00 842.30 L 892.20 756.10 L 899.60 753.90 L 906.70 751.20 L 913.60 748.20 L 920.20 744.90 L 926.50 741.10 L 932.70 737.00 L 938.60 732.60 L 944.10 727.90 L 949.40 722.90 L 954.30 717.60 L 960.10 710.70 L 965.40 703.30 L 970.10 695.60 L 974.30 687.60 L 977.30 681.00 L 979.80 674.20 L 982.00 667.30 L 983.80 660.20 L 985.20 652.90 L 986.20 645.60 L 986.70 638.20 L 986.80 630.70 L 986.50 623.10 L 985.70 615.40 L 984.50 607.80 L 982.80 600.30 L 980.80 593.20 L 978.30 586.20 L 975.50 579.40 L 972.30 572.70 L 968.70 566.30 L 964.80 560.20 L 960.50 554.30 L 956.00 548.70 L 949.80 542.00 L 943.30 535.80 L 936.30 530.10 L 928.90 524.80 L 922.70 521.00 L 916.30 517.60 L 909.80 514.50 L 903.00 511.70 L 896.00 509.40 L 888.90 507.40 L 881.60 505.90 L 874.20 504.70 L 866.70 504.00 L 858.90 503.80 L 851.20 504.00 L 843.60 504.60 L 836.20 505.70 L 828.90 507.20 L 821.80 509.10 L 814.80 511.40 L 808.00 514.10 L 801.40 517.10 L 795.00 520.50 L 788.80 524.30 L 781.30 529.50 L 774.30 535.10 L 767.70 541.30 L 761.50 547.90 L 756.90 553.50 L 752.60 559.40 L 748.60 565.50 L 745.00 571.80 L 741.70 578.40 L 738.80 585.20 L 736.30 592.20 L 734.20 599.40 L 732.50 606.80 L 731.20 614.40 L 730.40 622.10 L 730.00 629.70 L 730.00 637.20 L 730.50 644.60 L 731.40 651.90 L 732.80 659.20 L 734.50 666.30 L 736.70 673.20 L 739.20 680.00 L 742.10 686.70 L 746.20 694.80 L 750.90 702.50 L 756.10 709.90 L 761.80 716.90 L 766.70 722.20 L 772.00 727.20 L 777.50 732.00 L 783.30 736.40 L 789.40 740.60 L 795.70 744.40 L 802.30 747.80 L 809.10 750.80 L 816.20 753.50 L 823.60 755.90 L 823.00 1031.90 L 823.30 1036.60 L 824.20 1041.00 L 825.70 1045.20 L 827.70 1049.20 L 830.10 1052.80 L 833.00 1056.10 L 836.30 1059.00 L 839.90 1061.50 L 843.80 1063.50 L 848.00 1065.00 L 852.50 1065.90 L 857.20 1066.30 Z M 816.40 589.90 L 823.90 583.60 L 831.90 578.70 L 837.70 576.20 L 843.50 574.40 L 849.50 573.20 L 855.60 572.60 L 861.70 572.60 L 867.80 573.20 L 873.80 574.50 L 879.70 576.30 L 885.40 578.80 L 889.50 581.10 L 897.20 586.70 L 900.90 590.10 L 907.20 597.50 L 912.00 605.60 L 914.50 611.30 L 916.40 617.20 L 917.60 623.20 L 918.20 629.30 L 918.20 635.40 L 917.50 641.50 L 916.30 647.50 L 914.40 653.30 L 911.90 659.10 L 909.60 663.20 L 904.00 670.90 L 900.70 674.50 L 897.00 677.90 L 893.20 680.90 L 885.10 685.70 L 879.40 688.20 L 873.60 690.00 L 867.50 691.30 L 861.40 691.90 L 855.40 691.90 L 849.30 691.20 L 843.30 690.00 L 837.40 688.10 L 831.70 685.60 L 827.60 683.30 L 819.90 677.70 L 816.20 674.40 L 812.70 670.40 L 809.50 666.30 L 806.70 661.90 L 804.30 657.30 L 802.40 652.50 L 800.80 647.60 L 799.70 642.50 L 799.00 637.30 L 798.80 632.10 L 799.10 626.80 L 799.80 621.60 L 800.90 616.60 L 802.50 611.60 L 804.50 606.90 L 806.90 602.30 L 809.70 597.90 L 812.80 593.80 L 816.40 589.90 Z" fill="#ffffff" fill-rule="nonzero" node-id="117" stroke="none" target-height="562.50006" target-width="258.90002" target-x="730" target-y="503.8"></path><path d="M 954.70 950.10 L 891.70 949.90 L 891.80 910.90 L 934.70 910.90 L 938.60 910.20 L 942.50 909.10 L 946.20 907.60 L 949.60 905.70 L 952.90 903.30 L 955.80 900.60 L 958.40 897.60 L 960.70 894.10 L 962.60 890.50 L 964.00 886.70 L 964.90 882.80 L 965.40 878.80 L 965.40 874.80 L 965.00 870.90 L 964.10 867.00 L 962.70 863.20 L 960.80 859.50 L 958.50 856.10 L 955.90 853.00 L 953.00 850.30 L 949.80 847.90 L 946.30 846.00 L 942.60 844.40 L 938.80 843.30 L 934.80 842.70 L 892.00 842.30 L 892.20 756.10 L 899.60 753.90 L 906.80 751.20 L 913.60 748.20 L 920.20 744.80 L 926.60 741.10 L 932.80 737.00 L 938.60 732.60 L 944.20 727.90 L 949.40 722.90 L 954.40 717.60 L 960.20 710.60 L 965.40 703.20 L 970.20 695.60 L 974.40 687.50 L 977.30 680.80 L 979.90 674.10 L 982.10 667.10 L 983.80 660.00 L 985.20 652.70 L 986.20 645.40 L 986.80 638.00 L 986.90 630.50 L 986.50 622.90 L 985.70 615.20 L 984.50 607.50 L 982.80 600.10 L 980.70 592.90 L 978.30 585.90 L 975.40 579.10 L 972.10 572.50 L 968.60 566.10 L 964.60 559.90 L 960.40 554.10 L 955.80 548.40 L 949.60 541.80 L 943.00 535.60 L 936.10 529.90 L 928.60 524.60 L 922.40 520.80 L 916.00 517.40 L 909.40 514.30 L 902.60 511.60 L 895.60 509.20 L 888.50 507.30 L 881.20 505.80 L 873.80 504.70 L 866.20 504.00 L 858.50 503.80 L 858.50 572.50 L 863.90 572.70 L 869.10 573.30 L 874.20 574.40 L 879.20 575.90 L 884.10 577.90 L 888.70 580.20 L 893.10 583.00 L 897.20 586.10 L 901.10 589.60 L 904.70 593.40 L 907.90 597.60 L 910.90 602.10 L 913.40 606.90 L 915.40 611.80 L 917.00 616.70 L 918.10 621.80 L 918.80 627.00 L 919.00 632.20 L 918.80 637.40 L 918.10 642.60 L 917.00 647.70 L 915.40 652.60 L 913.40 657.50 L 910.90 662.30 L 907.90 666.80 L 904.70 671.00 L 901.10 674.80 L 897.20 678.30 L 893.10 681.50 L 888.70 684.20 L 884.10 686.50 L 879.20 688.50 L 874.20 690.00 L 869.10 691.10 L 863.90 691.80 L 858.50 691.90 L 858.50 1066.30 L 863.00 1065.80 L 867.30 1064.70 L 871.40 1063.20 L 875.20 1061.20 L 878.70 1058.70 L 881.90 1055.80 L 884.70 1052.50 L 887.00 1049.00 L 888.90 1045.10 L 890.40 1041.00 L 891.20 1036.60 L 891.60 1032.10 L 891.60 1018.50 L 954.60 1018.70 L 959.30 1018.30 L 963.70 1017.50 L 967.90 1016.00 L 971.90 1014.00 L 975.50 1011.60 L 978.80 1008.70 L 981.80 1005.40 L 984.20 1001.80 L 986.20 997.80 L 987.70 993.60 L 988.60 989.20 L 988.90 984.50 L 988.60 979.70 L 987.70 975.30 L 986.30 971.10 L 984.30 967.10 L 981.80 963.50 L 979.00 960.20 L 975.70 957.30 L 972.00 954.80 L 968.10 952.80 L 963.90 951.30 L 959.40 950.40 L 954.70 950.10 Z" fill="url(#未命名的渐变_49)" fill-rule="nonzero" node-id="119" stroke="none" target-height="562.50006" target-width="130.40002" target-x="858.5" target-y="503.8"></path><path d="M 1489.40 692.70 L 1470.70 685.50 L 1468.20 675.70 L 1466.50 670.90 L 1479.30 652.50 L 1479.50 651.40 L 1479.20 650.30 L 1478.30 649.10 L 1456.20 628.10 L 1455.10 627.50 L 1453.90 627.30 L 1452.70 627.50 L 1435.00 640.90 L 1420.30 637.50 L 1412.10 619.20 L 1410.00 617.80 L 1408.80 617.60 L 1407.50 617.80 L 1377.50 626.60 L 1376.80 627.60 L 1376.30 630.10 L 1379.10 650.80 L 1368.60 661.90 L 1347.80 660.10 L 1345.60 660.40 L 1344.70 661.10 L 1344.00 662.50 L 1336.60 693.60 L 1336.70 694.80 L 1337.60 696.00 L 1357.30 703.70 L 1358.40 708.60 L 1361.50 718.20 L 1349.50 737.50 L 1349.30 738.60 L 1349.60 739.60 L 1350.50 740.80 L 1372.60 761.80 L 1373.70 762.50 L 1374.90 762.70 L 1376.10 762.40 L 1377.20 761.70 L 1393.80 749.00 L 1403.50 751.60 L 1408.50 752.50 L 1416.70 770.70 L 1418.50 772.00 L 1419.70 772.40 L 1421.40 772.10 L 1451.30 763.40 L 1452.10 762.30 L 1452.60 759.80 L 1449.70 739.10 L 1457.50 730.70 L 1459.40 727.30 L 1480.30 729.10 L 1482.50 728.80 L 1483.30 728.10 L 1484.10 726.70 L 1491.40 695.60 L 1491.00 693.70 L 1489.40 692.70 Z M 1429.80 709.60 L 1427.50 711.60 L 1422.70 714.60 L 1420.10 715.50 L 1416.40 716.20 L 1412.70 716.30 L 1409.00 715.80 L 1406.30 715.00 L 1401.30 712.30 L 1399.00 710.40 L 1397.00 708.10 L 1394.00 703.30 L 1393.10 700.70 L 1392.40 697.00 L 1392.30 693.30 L 1392.80 689.60 L 1394.80 684.40 L 1396.30 681.90 L 1398.20 679.60 L 1402.80 675.90 L 1407.90 673.70 L 1411.60 673.00 L 1415.30 672.90 L 1419.00 673.40 L 1421.70 674.20 L 1426.70 676.90 L 1429.00 678.80 L 1431.00 681.00 L 1433.90 685.90 L 1434.90 688.50 L 1435.60 692.20 L 1435.70 695.90 L 1435.20 699.60 L 1434.40 702.30 L 1431.70 707.30 L 1429.80 709.60 Z" fill="#3a3a77" fill-rule="nonzero" node-id="121" stroke="none" target-height="154.80005" target-width="154.80005" target-x="1336.6" target-y="617.6"></path><path d="M 477.30 736.80 L 468.40 735.40 L 459.50 734.60 L 450.70 734.30 L 441.90 734.60 L 433.20 735.40 L 424.60 736.70 L 416.20 738.50 L 407.80 740.80 L 399.60 743.60 L 391.60 746.80 L 383.70 750.40 L 376.00 754.50 L 368.50 759.00 L 361.20 763.80 L 354.20 769.10 L 347.40 774.70 L 340.90 780.70 L 334.70 786.90 L 328.80 793.50 L 323.20 800.50 L 318.60 806.70 L 314.30 813.40 L 310.10 820.60 L 306.20 828.00 L 302.70 835.70 L 299.60 843.70 L 296.80 851.80 L 294.50 860.00 L 292.70 868.40 L 291.40 876.80 L 290.70 885.10 L 290.50 893.40 L 291.50 905.60 L 294.00 917.40 L 295.90 923.10 L 298.20 928.60 L 301.00 933.90 L 304.30 939.00 L 307.90 943.90 L 312.10 948.50 L 316.90 952.80 L 322.30 957.00 L 326.80 960.00 L 331.50 962.40 L 336.30 964.50 L 341.20 966.10 L 346.20 967.30 L 351.20 968.00 L 356.20 968.20 L 361.20 968.00 L 366.20 967.30 L 371.00 966.10 L 375.60 964.40 L 380.20 962.20 L 384.40 959.60 L 388.40 956.40 L 392.20 952.70 L 395.80 948.30 L 398.50 944.30 L 400.80 940.10 L 402.70 935.70 L 405.30 926.60 L 406.50 917.30 L 406.50 912.60 L 406.00 906.30 L 404.80 900.10 L 403.10 894.00 L 401.30 889.60 L 396.90 881.20 L 394.10 877.30 L 387.10 869.40 L 379.00 862.60 L 373.20 858.60 L 367.00 855.10 L 360.60 852.10 L 353.90 849.50 L 347.10 847.40 L 340.20 845.70 L 333.10 844.40 L 326.20 843.50 L 319.20 843.10 L 311.40 843.10 L 303.70 843.80 L 296.30 845.00 L 289.10 846.80 L 282.00 849.20 L 275.30 852.20 L 268.80 855.70 L 262.60 859.80 L 258.00 863.50 L 253.60 867.50 L 249.40 871.90 L 245.50 876.70 L 241.80 881.80 L 238.20 887.90 L 234.90 894.10 L 232.10 900.50 L 229.70 907.20 L 227.00 916.20 L 224.90 925.40 L 223.40 934.70 L 222.30 944.20 L 221.70 953.50 L 221.70 972.60 L 222.30 982.40 L 223.40 992.30 L 225.00 1002.00 L 227.20 1011.70 L 230.00 1021.10 L 232.50 1028.10 L 235.40 1034.90 L 238.70 1041.40 L 242.40 1047.80 L 246.50 1054.00 L 251.10 1059.90 L 256.10 1065.40 L 257.80 1066.80 L 259.60 1067.70 L 261.30 1068.10 L 264.70 1067.70 L 266.40 1066.90 L 269.10 1064.60 L 270.90 1061.50 L 271.40 1058.00 L 271.00 1056.20 L 270.20 1054.50 L 260.80 1043.10 L 257.40 1037.90 L 254.30 1032.60 L 250.80 1025.10 L 247.70 1017.40 L 245.20 1009.40 L 243.20 1001.30 L 241.70 993.10 L 239.90 976.90 L 239.40 960.60 L 239.70 952.50 L 241.30 936.30 L 242.70 928.20 L 244.60 920.40 L 246.90 912.60 L 249.10 906.80 L 251.50 901.30 L 254.40 896.00 L 257.50 890.90 L 261.00 886.10 L 264.90 881.70 L 269.10 877.70 L 273.70 873.90 L 278.50 870.70 L 283.70 867.80 L 289.30 865.50 L 295.30 863.60 L 301.10 862.30 L 306.90 861.50 L 312.90 861.00 L 318.90 861.00 L 324.90 861.40 L 336.70 863.30 L 342.60 864.80 L 348.30 866.70 L 353.90 868.90 L 364.30 874.40 L 368.60 877.40 L 372.60 880.60 L 376.20 884.20 L 379.40 888.00 L 382.20 892.10 L 384.50 896.40 L 386.30 900.90 L 387.60 905.60 L 388.40 910.50 L 388.50 915.50 L 388.00 920.50 L 386.90 925.80 L 385.40 930.10 L 383.50 934.20 L 381.10 938.00 L 378.90 940.70 L 374.00 945.20 L 371.00 947.10 L 367.90 948.50 L 364.70 949.60 L 358.10 950.60 L 351.30 950.20 L 346.30 949.10 L 341.50 947.40 L 333.50 943.10 L 326.80 937.80 L 322.90 933.60 L 319.40 929.10 L 316.50 924.20 L 314.10 919.10 L 312.10 913.70 L 310.50 908.10 L 309.40 902.40 L 308.80 896.60 L 308.50 890.70 L 308.90 882.50 L 309.80 874.30 L 311.30 866.20 L 313.40 858.20 L 315.90 850.30 L 319.00 842.60 L 322.50 835.10 L 326.40 827.90 L 330.60 820.90 L 336.10 812.90 L 342.10 805.20 L 348.70 797.90 L 355.70 791.10 L 363.10 784.60 L 370.90 778.70 L 379.00 773.20 L 387.50 768.30 L 396.30 764.00 L 403.10 761.10 L 416.90 756.60 L 424.00 754.80 L 431.20 753.50 L 438.40 752.60 L 445.70 752.10 L 453.10 752.10 L 459.60 752.50 L 472.50 754.20 L 474.90 754.40 L 477.20 754.10 L 479.30 753.30 L 482.10 750.80 L 483.60 747.90 L 483.80 745.70 L 483.50 743.30 L 482.70 741.10 L 481.30 739.20 L 478.80 737.30 L 477.30 736.90 Z" fill="url(#未命名的渐变_49-2)" fill-rule="nonzero" node-id="123" stroke="none" target-height="333.8" target-width="262.09998" target-x="221.7" target-y="734.3"></path><path d="M 1184.50 374.00 L 1274.50 323.00 L 1229.50 269.00 L 1184.50 374.00 Z" fill="#d3dcf4" fill-rule="nonzero" node-id="125" stroke="none" target-height="105" target-width="90" target-x="1184.5" target-y="269"></path><path d="M 1203.40 381.30 L 1334.50 360.30 L 1316.10 427.20 L 1203.40 381.30 Z" fill="#d3dcf4" fill-rule="nonzero" node-id="127" stroke="none" target-height="66.900024" target-width="131.09998" target-x="1203.4" target-y="360.3"></path><g node-id="129"><g node-id="130"><g node-id="133"><path d="M 1269.20 1118.10 L 1236.40 1099.20 L 1235.30 1098.40 L 1234.80 1097.50 L 1234.70 1096.50 L 1235.80 1094.60 L 1237.10 1093.70 L 1268.20 1075.70 L 1271.40 1074.50 L 1274.90 1074.40 L 1276.50 1074.70 L 1310.60 1094.20 L 1311.70 1095.00 L 1312.20 1095.90 L 1312.30 1096.90 L 1311.20 1098.80 L 1309.90 1099.70 L 1278.80 1117.70 L 1276.40 1118.70 L 1273.80 1119.10 L 1272.00 1119.00 L 1269.20 1118.10 Z" fill="#c9cfe5" fill-opacity="0.3" fill-rule="nonzero" group-id="1,2,5" id="路径" node-id="39" stroke="none" target-height="44.69995" target-width="77.6001" target-x="1234.7" target-y="1074.4"></path></g><path d="M 1312.30 1081.10 L 1312.30 737.80 L 1234.70 737.80 L 1234.90 1081.90 L 1235.70 1083.20 L 1236.40 1083.60 L 1269.20 1102.50 L 1272.00 1103.40 L 1273.80 1103.40 L 1276.40 1103.00 L 1278.80 1102.10 L 1309.90 1084.10 L 1311.00 1083.40 L 1312.30 1081.20 Z" fill="url(#未命名的渐变_17)" fill-rule="nonzero" group-id="1,2" id="路径-2" node-id="40" stroke="none" target-height="365.60004" target-width="77.6001" target-x="1234.7" target-y="737.8"></path><path d="M 1269.20 759.40 L 1236.40 740.40 L 1235.30 739.60 L 1234.80 738.70 L 1234.70 737.70 L 1235.80 735.90 L 1237.10 734.90 L 1268.20 716.90 L 1271.40 715.70 L 1274.90 715.60 L 1276.50 715.90 L 1310.60 735.40 L 1311.70 736.30 L 1312.20 737.10 L 1312.30 738.10 L 1311.20 740.00 L 1309.90 740.90 L 1278.80 758.90 L 1276.40 759.90 L 1273.80 760.30 L 1272.00 760.20 L 1269.20 759.40 Z" fill="#fafbfd" fill-rule="nonzero" group-id="1,2" id="路径-3" node-id="41" stroke="none" target-height="44.700012" target-width="77.6001" target-x="1234.7" target-y="715.6"></path></g><g node-id="131"><g node-id="134"><path d="M 563.90 1136.00 L 531.10 1117.10 L 530.00 1116.20 L 529.50 1115.30 L 529.40 1114.40 L 530.50 1112.50 L 531.80 1111.50 L 563.00 1093.50 L 566.20 1092.40 L 569.70 1092.20 L 571.30 1092.50 L 605.50 1112.00 L 606.60 1112.90 L 607.10 1113.80 L 607.20 1114.70 L 606.10 1116.60 L 604.80 1117.60 L 573.60 1135.60 L 571.20 1136.60 L 568.60 1137.00 L 566.80 1136.90 L 563.90 1136.00 Z" fill="#a0b3f8" fill-opacity="0.3" fill-rule="nonzero" group-id="1,3,6" id="路径-4" node-id="43" stroke="none" target-height="44.80005" target-width="77.79999" target-x="529.4" target-y="1092.2"></path></g><path d="M 607.10 1099.00 L 607.10 994.70 L 529.40 994.70 L 529.40 1099.10 L 529.90 1100.50 L 531.10 1101.50 L 563.90 1120.40 L 566.80 1121.30 L 568.60 1121.30 L 571.20 1120.90 L 573.60 1120.00 L 604.70 1102.00 L 606.30 1100.80 L 607.10 1099.10 Z" fill="url(#未命名的渐变_23)" fill-rule="nonzero" group-id="1,3" id="路径-5" node-id="44" stroke="none" target-height="126.60004" target-width="77.69995" target-x="529.4" target-y="994.7"></path><path d="M 563.90 1016.20 L 531.10 997.30 L 530.00 996.50 L 529.50 995.60 L 529.40 994.60 L 529.70 993.70 L 530.50 992.70 L 531.80 991.80 L 563.00 973.80 L 566.20 972.60 L 569.70 972.50 L 571.30 972.80 L 605.40 992.30 L 606.50 993.10 L 607.00 994.00 L 607.10 995.00 L 606.10 996.90 L 604.80 997.90 L 573.60 1015.80 L 571.20 1016.80 L 568.60 1017.20 L 566.80 1017.10 L 563.90 1016.20 Z" fill="url(#未命名的渐变_49-3)" fill-rule="nonzero" group-id="1,3" id="路径-6" node-id="45" stroke="none" target-height="44.700012" target-width="77.69995" target-x="529.4" target-y="972.5"></path></g><g node-id="132"><g node-id="135"><path d="M 1170.40 1161.40 L 1102.40 1122.20 L 1099.80 1119.90 L 1098.90 1117.40 L 1099.10 1116.00 L 1100.60 1113.30 L 1103.80 1110.70 L 1168.40 1073.50 L 1171.60 1072.10 L 1175.10 1071.10 L 1178.70 1070.70 L 1184.60 1071.20 L 1188.40 1072.70 L 1256.40 1111.90 L 1259.00 1114.20 L 1259.60 1115.40 L 1259.90 1116.80 L 1259.70 1118.10 L 1258.20 1120.80 L 1255.00 1123.40 L 1190.40 1160.60 L 1187.20 1162.00 L 1183.70 1163.00 L 1180.10 1163.40 L 1174.20 1162.90 L 1170.40 1161.40 Z" fill="#a0b3f8" fill-opacity="0.3" fill-rule="nonzero" group-id="1,4,7" id="路径-7" node-id="47" stroke="none" target-height="92.70007" target-width="161" target-x="1098.9" target-y="1070.7"></path></g><path d="M 1259.90 1090.80 L 1259.90 861.70 L 1098.90 861.70 L 1098.90 1090.90 L 1099.10 1092.20 L 1099.70 1093.50 L 1100.80 1094.70 L 1102.40 1095.90 L 1170.40 1135.10 L 1174.20 1136.50 L 1180.10 1137.10 L 1183.70 1136.60 L 1187.20 1135.70 L 1190.40 1134.20 L 1255.00 1097.00 L 1258.50 1094.10 L 1259.40 1092.50 L 1259.80 1091.00 Z" fill="url(#未命名的渐变_23-2)" fill-rule="nonzero" group-id="1,4" id="路径-8" node-id="48" stroke="none" target-height="275.39996" target-width="161" target-x="1098.9" target-y="861.7"></path><path d="M 1169.40 907.30 L 1101.40 868.10 L 1098.80 865.70 L 1098.20 864.50 L 1097.90 863.20 L 1098.10 861.80 L 1099.60 859.10 L 1102.80 856.60 L 1167.40 819.30 L 1170.60 817.80 L 1174.10 816.90 L 1177.70 816.50 L 1183.60 817.00 L 1187.40 818.50 L 1255.40 857.60 L 1258.00 860.00 L 1258.90 862.50 L 1258.70 863.90 L 1258.10 865.30 L 1257.20 866.60 L 1254.00 869.20 L 1189.40 906.40 L 1186.20 907.90 L 1182.70 908.80 L 1179.10 909.30 L 1173.20 908.80 L 1169.40 907.30 Z" fill="url(#未命名的渐变_49-4)" fill-rule="nonzero" group-id="1,4" id="路径-9" node-id="49" stroke="none" target-height="92.79999" target-width="161" target-x="1097.9" target-y="816.5"></path></g></g></svg>