<?xml version="1.0" standalone="no"?><!DOCTYPE svg PUBLIC "-//W3C//DTD SVG 1.1//EN" "http://www.w3.org/Graphics/SVG/1.1/DTD/svg11.dtd"><svg height="1500" node-id="1" sillyvg="true" template-height="1500" template-width="1716" version="1.1" viewBox="0 0 1716 1500" width="1716" xmlns="http://www.w3.org/2000/svg" xmlns:xlink="http://www.w3.org/1999/xlink"><defs node-id="57"><linearGradient gradientUnits="objectBoundingBox" id="未命名的渐变_94" node-id="5" spreadMethod="pad" x1="583" x2="1335.33" y1="682.27" y2="682.27"><stop offset="0" stop-color="#ebf4ff"></stop><stop offset="1" stop-color="#ebe1ff"></stop></linearGradient><linearGradient gradientUnits="objectBoundingBox" id="未命名的渐变_23" node-id="8" spreadMethod="pad" x1="1444.17" x2="1446.73" y1="553.9" y2="553.9"><stop offset="0" stop-color="#548fff"></stop><stop offset="1" stop-color="#949fff"></stop></linearGradient><linearGradient gradientUnits="objectBoundingBox" id="未命名的渐变_49" node-id="11" spreadMethod="pad" x1="1340.48" x2="1501.44" y1="816.88" y2="816.88"><stop offset="0" stop-color="#ebf4ff"></stop><stop offset="1" stop-color="#ebebff"></stop></linearGradient><linearGradient gradientUnits="objectBoundingBox" id="未命名的渐变_49-2" node-id="14" spreadMethod="pad" x1="749" x2="915" y1="1146.24" y2="1146.24"><stop offset="0" stop-color="#ebf4ff"></stop><stop offset="1" stop-color="#ebebff"></stop></linearGradient><linearGradient gradientUnits="objectBoundingBox" id="未命名的渐变_49-3" node-id="15" spreadMethod="pad" x1="1022" x2="1139" y1="624" y2="624"><stop offset="0" stop-color="#ebf4ff"></stop><stop offset="1" stop-color="#ebebff"></stop></linearGradient><linearGradient gradientUnits="objectBoundingBox" id="未命名的渐变_17" node-id="16" spreadMethod="pad" x1="1398.17" x2="1400.76" y1="561.36" y2="561.36"><stop offset="0" stop-color="#eaeff5"></stop><stop offset="0.99" stop-color="#dee1f0"></stop></linearGradient><linearGradient gradientUnits="objectBoundingBox" id="未命名的渐变_23-2" node-id="19" spreadMethod="pad" x1="1394.17" x2="1396.73" y1="540.71" y2="540.71"><stop offset="0" stop-color="#548fff"></stop><stop offset="1" stop-color="#949fff"></stop></linearGradient><linearGradient gradientUnits="objectBoundingBox" id="未命名的渐变_49-4" node-id="20" spreadMethod="pad" x1="345.95" x2="423.67" y1="1092.82" y2="1092.82"><stop offset="0" stop-color="#ebf4ff"></stop><stop offset="1" stop-color="#ebebff"></stop></linearGradient><linearGradient gradientUnits="objectBoundingBox" id="未命名的渐变_23-3" node-id="21" spreadMethod="pad" x1="1430.1" x2="1432.66" y1="563.68" y2="563.68"><stop offset="0" stop-color="#548fff"></stop><stop offset="1" stop-color="#949fff"></stop></linearGradient><linearGradient gradientUnits="objectBoundingBox" id="未命名的渐变_49-5" node-id="22" spreadMethod="pad" x1="503.4" x2="661.71" y1="781.98" y2="781.98"><stop offset="0" stop-color="#ebf4ff"></stop><stop offset="1" stop-color="#ebebff"></stop></linearGradient></defs><path d="M 792.00 236.50 L 779.50 245.60 L 767.30 255.00 L 755.40 264.80 L 743.90 275.00 L 732.60 285.50 L 721.70 296.40 L 711.20 307.60 L 701.00 319.10 L 691.10 330.90 L 681.70 343.10 L 672.60 355.50 L 663.90 368.30 L 655.50 381.30 L 647.60 394.60 L 640.10 408.20 L 633.00 422.00 L 626.40 436.10 L 620.20 450.40 L 614.40 465.00 L 609.10 479.80 L 604.30 494.70 L 599.90 509.90 L 596.00 525.30 L 592.60 540.90 L 589.70 556.70 L 587.30 572.60 L 585.50 588.70 L 584.10 604.90 L 583.30 621.30 L 583.00 638.00 L 583.30 656.10 L 584.30 674.00 L 585.90 691.60 L 588.10 708.90 L 590.90 726.10 L 594.30 743.20 L 598.30 760.10 L 602.90 776.60 L 608.00 792.90 L 613.70 809.00 L 619.90 824.90 L 626.60 840.40 L 633.90 855.70 L 641.60 870.70 L 649.90 885.30 L 658.70 899.70 L 667.90 913.70 L 677.50 927.40 L 687.70 940.70 L 698.20 953.70 L 709.30 966.30 L 720.70 978.50 L 732.50 990.30 L 744.70 1001.70 L 757.30 1012.80 L 770.30 1023.30 L 783.60 1033.50 L 797.30 1043.10 L 811.30 1052.30 L 825.70 1061.10 L 840.30 1069.40 L 855.30 1077.10 L 870.60 1084.40 L 886.10 1091.10 L 902.00 1097.30 L 918.10 1103.00 L 934.40 1108.10 L 950.90 1112.70 L 967.80 1116.70 L 984.90 1120.10 L 1002.10 1122.90 L 1019.40 1125.10 L 1037.00 1126.70 L 1054.90 1127.70 L 1073.00 1128.00 L 1088.50 1127.80 L 1104.00 1127.10 L 1119.30 1125.90 L 1134.60 1124.20 L 1149.70 1122.00 L 1164.90 1119.40 L 1179.90 1116.30 L 1194.80 1112.70 L 1209.60 1108.70 L 1224.20 1104.20 L 1238.70 1099.30 L 1253.10 1093.80 L 1267.30 1088.00 L 1281.30 1081.70 L 1295.10 1074.90 L 1308.70 1067.70 L 1322.10 1060.00 L 1335.30 1051.90 Z" fill="url(#未命名的渐变_94)" fill-rule="nonzero" node-id="121" stroke="#5d83ff" stroke-linecap="butt" stroke-width="18" target-height="891.5" target-width="752.30005" target-x="583" target-y="236.5"></path><path d="M 1203.10 440.40 L 1212.50 446.00 L 1221.40 452.20 L 1229.90 458.80 L 1237.90 465.80 L 1245.50 473.40 L 1252.70 481.30 L 1259.30 489.50 L 1265.50 498.20 L 1271.10 507.20 L 1276.20 516.60 L 1280.80 526.20 L 1284.80 536.10 L 1288.30 546.20 L 1291.10 556.60 L 1293.40 567.20 L 1295.00 578.00 L 1270.90 578.00 L 1269.40 568.90 L 1267.30 560.10 L 1264.80 551.40 L 1261.80 543.00 L 1258.30 534.70 L 1254.40 526.60 L 1250.10 518.80 L 1245.30 511.20 L 1240.10 503.90 L 1234.60 497.00 L 1228.60 490.30 L 1222.20 483.90 L 1215.50 478.00 L 1208.50 472.30 L 1201.00 467.10 L 1193.30 462.20 L 1203.10 440.40 M 1194.50 415.90 L 1169.80 470.40 L 1177.20 474.00 L 1184.40 477.90 L 1191.20 482.10 L 1197.70 486.70 L 1203.90 491.60 L 1209.90 497.00 L 1215.50 502.50 L 1220.80 508.40 L 1225.70 514.50 L 1230.30 521.00 L 1234.50 527.60 L 1238.40 534.50 L 1241.80 541.60 L 1244.90 548.90 L 1247.50 556.40 L 1249.80 564.00 L 1251.60 571.80 L 1253.00 579.70 L 1253.90 587.80 L 1254.40 596.00 L 1314.20 596.00 L 1313.80 586.60 L 1313.00 577.30 L 1311.80 568.20 L 1310.10 559.20 L 1308.10 550.30 L 1304.90 539.30 L 1301.20 528.60 L 1296.90 518.10 L 1292.00 507.90 L 1286.60 498.00 L 1280.60 488.50 L 1274.10 479.30 L 1267.10 470.40 L 1259.60 462.00 L 1251.60 454.00 L 1243.10 446.40 L 1234.20 439.30 L 1226.80 433.90 L 1219.10 428.90 L 1211.20 424.20 L 1203.00 419.90 L 1194.40 415.90 Z" fill="#fe9f39" fill-rule="nonzero" node-id="123" stroke="none" target-height="180.1" target-width="144.3999" target-x="1169.8" target-y="415.9"></path><path d="M 1250.80 334.90 L 1261.70 340.90 L 1272.30 347.30 L 1282.50 354.00 L 1292.40 361.10 L 1302.00 368.60 L 1311.30 376.60 L 1320.20 384.80 L 1328.70 393.30 L 1336.80 402.20 L 1344.60 411.40 L 1352.10 420.90 L 1359.10 430.70 L 1365.70 440.70 L 1371.90 451.00 L 1377.70 461.60 L 1383.10 472.40 L 1388.00 483.40 L 1392.50 494.60 L 1396.50 506.00 L 1400.10 517.60 L 1403.20 529.40 L 1405.90 541.30 L 1408.00 553.40 L 1409.70 565.60 L 1410.90 578.00 L 1352.50 578.00 L 1351.00 566.00 L 1349.00 554.10 L 1346.40 542.50 L 1343.30 531.10 L 1339.60 519.80 L 1335.40 508.80 L 1330.60 498.00 L 1325.40 487.50 L 1319.60 477.20 L 1313.40 467.30 L 1306.70 457.70 L 1299.50 448.40 L 1291.90 439.40 L 1283.80 430.80 L 1275.30 422.70 L 1266.40 414.80 L 1257.10 407.50 L 1247.40 400.60 L 1237.30 394.10 L 1226.80 388.10 L 1250.80 334.90 M 1242.00 310.70 L 1203.20 396.60 L 1212.60 401.00 L 1221.70 405.80 L 1230.50 411.00 L 1239.00 416.60 L 1247.20 422.50 L 1255.10 428.80 L 1262.70 435.40 L 1270.00 442.30 L 1276.90 449.50 L 1283.50 457.00 L 1289.70 464.80 L 1295.60 472.90 L 1301.10 481.20 L 1306.20 489.70 L 1311.00 498.50 L 1315.40 507.50 L 1319.30 516.70 L 1322.90 526.10 L 1326.00 535.60 L 1328.70 545.40 L 1331.00 555.20 L 1332.80 565.20 L 1334.10 575.30 L 1335.00 585.60 L 1335.50 596.00 L 1429.60 596.00 L 1429.20 583.20 L 1428.30 570.70 L 1426.90 558.30 L 1425.10 546.10 L 1422.80 534.10 L 1420.00 522.10 L 1416.80 510.30 L 1413.10 498.80 L 1409.10 487.50 L 1404.60 476.30 L 1399.70 465.40 L 1394.40 454.60 L 1388.70 444.20 L 1382.70 433.90 L 1376.30 424.00 L 1369.50 414.20 L 1362.30 404.80 L 1354.90 395.60 L 1347.10 386.70 L 1338.90 378.10 L 1330.50 369.80 L 1321.70 361.90 L 1312.70 354.20 L 1303.40 346.90 L 1293.80 340.00 L 1283.90 333.40 L 1273.80 327.10 L 1263.50 321.30 L 1252.90 315.80 L 1242.00 310.70 Z" fill="#fe9f39" fill-rule="nonzero" node-id="125" stroke="none" target-height="285.3" target-width="226.40002" target-x="1203.2" target-y="310.7"></path><path d="M 1320.20 181.40 L 1335.30 189.20 L 1350.00 197.50 L 1364.30 206.20 L 1378.10 215.50 L 1391.60 225.10 L 1404.80 235.30 L 1417.60 245.90 L 1429.90 256.90 L 1441.80 268.20 L 1453.20 280.00 L 1464.30 292.20 L 1474.90 304.70 L 1485.00 317.60 L 1494.70 330.80 L 1503.90 344.40 L 1512.60 358.20 L 1520.80 372.40 L 1528.50 386.80 L 1535.80 401.60 L 1542.50 416.60 L 1548.70 431.80 L 1554.30 447.30 L 1559.50 462.90 L 1564.00 478.80 L 1568.10 495.00 L 1571.50 511.20 L 1574.40 527.70 L 1576.70 544.20 L 1578.40 561.00 L 1579.50 578.00 L 1471.10 578.00 L 1470.00 565.30 L 1468.60 552.80 L 1466.70 540.40 L 1464.40 528.20 L 1461.70 516.00 L 1458.60 503.90 L 1455.00 492.10 L 1451.10 480.30 L 1446.70 468.80 L 1442.00 457.40 L 1436.90 446.10 L 1431.40 435.10 L 1425.50 424.20 L 1419.30 413.60 L 1412.70 403.20 L 1405.80 393.00 L 1398.50 383.10 L 1390.90 373.40 L 1383.00 364.00 L 1374.70 354.80 L 1366.10 345.90 L 1357.20 337.30 L 1348.00 329.10 L 1338.50 321.10 L 1328.70 313.40 L 1318.70 306.00 L 1308.30 299.10 L 1297.70 292.40 L 1286.80 286.10 L 1275.60 280.10 L 1320.20 181.40 M 1311.30 157.30 L 1251.90 288.80 L 1263.60 294.30 L 1275.00 300.20 L 1286.20 306.50 L 1297.00 313.20 L 1307.60 320.30 L 1318.00 327.80 L 1328.00 335.70 L 1337.70 343.90 L 1347.10 352.40 L 1356.20 361.40 L 1365.00 370.60 L 1373.40 380.20 L 1381.40 390.10 L 1389.10 400.30 L 1396.40 410.80 L 1403.30 421.50 L 1409.80 432.50 L 1415.90 443.80 L 1421.60 455.30 L 1426.90 467.20 L 1431.70 479.10 L 1436.00 491.30 L 1439.90 503.80 L 1443.40 516.40 L 1446.40 529.30 L 1448.90 542.30 L 1450.80 555.40 L 1452.30 568.70 L 1453.30 582.30 L 1453.70 596.00 L 1598.00 596.00 L 1597.60 579.20 L 1596.60 562.60 L 1595.10 546.20 L 1593.00 530.10 L 1590.40 514.10 L 1587.30 498.10 L 1583.70 482.40 L 1579.50 467.00 L 1574.90 451.70 L 1569.80 436.70 L 1564.20 421.80 L 1558.20 407.20 L 1551.70 392.90 L 1544.80 378.80 L 1537.40 365.00 L 1529.50 351.40 L 1521.30 338.10 L 1512.60 325.10 L 1503.60 312.40 L 1494.10 300.00 L 1484.30 287.90 L 1474.10 276.20 L 1463.50 264.80 L 1452.60 253.70 L 1441.30 243.00 L 1429.70 232.60 L 1417.70 222.70 L 1405.50 213.10 L 1392.90 203.90 L 1380.00 195.00 L 1366.80 186.60 L 1353.40 178.70 L 1339.70 171.10 L 1325.70 164.00 L 1311.40 157.30 Z" fill="#fe9f39" fill-rule="nonzero" node-id="127" stroke="none" target-height="438.7" target-width="346.09998" target-x="1251.9" target-y="157.3"></path><g node-id="155"><g node-id="157"><path d="M 1411.90 1035.40 L 1343.90 996.20 L 1341.30 993.90 L 1340.70 992.70 L 1340.50 991.40 L 1340.60 990.00 L 1342.10 987.30 L 1345.40 984.70 L 1410.00 947.50 L 1413.20 946.10 L 1416.70 945.10 L 1420.30 944.70 L 1426.20 945.20 L 1430.00 946.70 L 1498.00 985.80 L 1500.60 988.20 L 1501.20 989.40 L 1501.50 990.70 L 1501.30 992.10 L 1499.80 994.80 L 1496.60 997.40 L 1432.00 1034.60 L 1428.80 1036.00 L 1425.30 1037.00 L 1421.60 1037.40 L 1415.80 1036.90 L 1411.90 1035.40 Z" fill="#a0b3f8" fill-opacity="0.3" fill-rule="nonzero" group-id="1,3" id="路径" node-id="31" stroke="none" target-height="92.70001" target-width="161" target-x="1340.5" target-y="944.7"></path></g><path d="M 1501.40 964.80 L 1501.40 816.70 L 1340.50 816.70 L 1340.50 964.90 L 1340.70 966.20 L 1341.30 967.50 L 1342.30 968.70 L 1344.00 969.90 L 1412.00 1009.10 L 1415.80 1010.50 L 1418.10 1010.90 L 1421.60 1011.10 L 1425.30 1010.60 L 1428.80 1009.70 L 1432.00 1008.20 L 1496.60 971.00 L 1498.60 969.60 L 1500.00 968.10 L 1501.00 966.50 L 1501.40 965.00 Z" fill="url(#未命名的渐变_23)" fill-rule="nonzero" group-id="1" id="路径-2" node-id="32" stroke="none" target-height="194.39996" target-width="160.90002" target-x="1340.5" target-y="816.7"></path><path d="M 1411.90 861.30 L 1343.90 822.10 L 1341.30 819.70 L 1340.50 817.20 L 1340.60 815.80 L 1342.10 813.10 L 1345.40 810.60 L 1410.00 773.30 L 1413.20 771.80 L 1416.70 770.90 L 1420.30 770.50 L 1423.90 770.60 L 1428.20 771.60 L 1498.00 811.60 L 1500.60 814.00 L 1501.50 816.50 L 1501.30 817.90 L 1499.80 820.60 L 1496.60 823.20 L 1432.00 860.40 L 1428.80 861.90 L 1425.30 862.80 L 1421.60 863.30 L 1415.80 862.80 L 1411.90 861.30 Z" fill="url(#未命名的渐变_49)" fill-rule="nonzero" group-id="1" id="路径-3" node-id="33" stroke="none" target-height="92.79999" target-width="161" target-x="1340.5" target-y="770.5"></path></g><path d="M 642.00 394.30 L 652.20 395.50 L 661.10 397.00 L 668.70 398.60 L 675.10 400.40 L 681.80 402.70 L 687.30 405.20 L 691.80 407.80 L 695.40 410.40 L 698.20 413.00 L 700.40 415.60 L 702.20 418.20 L 703.50 421.00 L 704.40 423.90 L 705.10 427.60 L 705.10 431.50 L 704.70 435.70 L 703.60 440.20 L 700.10 448.90 L 694.50 458.80 L 700.20 448.70 L 703.70 439.80 L 704.80 435.30 L 705.20 431.00 L 705.00 427.00 L 704.30 423.30 L 703.20 420.40 L 701.80 417.60 L 699.90 414.90 L 697.50 412.30 L 694.50 409.70 L 690.70 407.10 L 685.90 404.50 L 680.00 402.10 L 672.90 399.70 L 666.10 398.00 L 658.10 396.40 L 648.70 395.10 L 637.90 393.90 L 623.80 393.00 L 607.20 392.60 L 587.80 392.80 L 568.40 393.60 L 546.20 394.90 L 521.00 397.00 L 500.10 399.20 L 480.20 401.70 L 461.30 404.40 L 443.30 407.50 L 426.30 410.80 L 408.80 414.60 L 392.10 418.60 L 376.40 422.80 L 361.50 427.20 L 333.00 436.80 L 319.30 442.00 L 294.40 452.70 L 282.90 458.20 L 268.50 465.60 L 255.10 473.10 L 242.80 480.70 L 231.40 488.20 L 220.10 496.30 L 209.60 504.30 L 200.10 512.30 L 191.40 520.10 L 174.90 536.50 L 161.50 552.00 L 153.20 562.60 L 146.20 572.70 L 140.20 582.10 L 134.60 591.80 L 129.90 600.70 L 126.10 608.70 L 119.90 623.90 L 115.30 638.40 L 113.00 649.00 L 116.00 642.30 L 119.50 635.70 L 123.40 629.10 L 127.80 622.70 L 132.80 616.30 L 139.30 608.80 L 146.40 601.50 L 154.20 594.30 L 162.60 587.20 L 171.20 580.60 L 180.40 574.10 L 190.00 567.90 L 200.10 561.80 L 213.80 554.20 L 228.00 547.10 L 242.80 540.30 L 257.80 534.10 L 273.00 528.30 L 288.40 523.00 L 303.90 518.20 L 319.30 513.90 L 334.40 510.10 L 349.60 506.70 L 364.30 503.90 L 378.40 501.70 L 392.60 499.90 L 405.70 498.70 L 418.00 498.10 L 427.30 498.00 L 443.60 498.70 L 450.70 499.50 L 458.00 500.70 L 464.30 502.20 L 469.60 504.00 L 474.20 506.00 L 477.80 508.10 L 480.70 510.40 L 483.00 512.80 L 484.70 515.30 L 487.60 522.00 L 488.60 526.10 L 489.10 530.20 L 489.10 534.30 L 488.50 538.60 L 485.90 547.00 L 481.40 556.00 L 478.30 560.80 L 469.40 572.10 L 463.90 578.20 L 448.90 592.60 L 439.10 601.00 L 428.20 609.90 L 411.20 622.90 L 372.70 650.60 L 309.00 695.20 L 287.30 710.80 L 265.60 726.80 L 237.40 748.70 L 210.50 771.40 L 197.80 782.90 L 185.70 794.60 L 176.80 803.60 L 160.50 821.70 L 153.10 830.80 L 146.00 840.30 L 139.50 849.70 L 133.50 859.20 L 128.20 868.60 L 124.30 876.50 L 120.80 884.30 L 117.80 892.20 L 115.20 900.10 L 113.00 908.00 L 111.50 915.50 L 110.50 922.50 L 110.00 929.30 L 110.00 935.70 L 110.50 941.70 L 111.40 947.50 L 112.80 953.40 L 114.70 959.10 L 116.90 964.50 L 119.50 969.70 L 122.60 974.80 L 126.10 979.60 L 130.70 985.10 L 135.80 990.30 L 141.50 995.40 L 147.80 1000.20 L 154.70 1004.90 L 169.20 1013.10 L 185.80 1020.60 L 194.90 1024.10 L 206.20 1027.90 L 218.20 1031.40 L 230.90 1034.70 L 244.30 1037.80 L 262.20 1041.20 L 280.90 1044.10 L 300.60 1046.60 L 320.40 1048.60 L 340.60 1050.20 L 361.40 1051.40 L 403.30 1052.50 L 424.40 1052.60 L 466.50 1051.80 L 518.00 1049.40 L 547.50 1047.30 L 576.30 1044.80 L 602.90 1042.10 L 651.00 1036.00 L 674.40 1032.40 L 695.50 1028.70 L 735.10 1020.80 L 808.00 1004.90 L 845.60 997.70 L 865.50 994.50 L 887.10 991.60 L 909.40 989.10 L 934.40 987.00 L 969.70 985.00 L 989.70 984.30 L 1031.60 983.80 L 1055.40 983.90 L 1091.80 984.80 L 1133.40 986.40 L 1176.80 988.70 L 1226.00 992.00 L 1260.30 996.00 L 1290.60 1000.00 L 1317.20 1004.00 L 1343.60 1008.60 L 1366.40 1013.10 L 1385.80 1017.50 L 1400.60 1021.30 L 1413.40 1025.10 L 1424.50 1028.70 L 1434.00 1032.20 L 1443.80 1036.40 L 1452.00 1040.30 L 1458.60 1044.10 L 1464.00 1047.70 L 1468.30 1051.20 L 1471.80 1054.50 L 1474.50 1057.70 L 1476.50 1060.80 L 1477.90 1063.70 L 1478.90 1067.00 L 1479.40 1070.20 L 1479.40 1073.40 L 1478.90 1076.60 L 1477.90 1079.80 L 1476.10 1083.60 L 1473.60 1087.50 L 1470.30 1091.40 L 1466.20 1095.60 L 1461.90 1099.30 L 1451.30 1106.80 L 1444.80 1110.70 L 1436.20 1115.40 L 1426.70 1120.20 L 1416.10 1124.90 L 1394.10 1133.50 L 1382.10 1137.60 L 1363.80 1143.40 L 1344.90 1148.70 L 1325.80 1153.40 L 1306.90 1157.60 L 1288.00 1161.10 L 1252.90 1166.70 L 1238.00 1169.50 L 1224.90 1172.40 L 1212.00 1175.80 L 1200.90 1179.20 L 1191.40 1182.60 L 1182.00 1186.40 L 1174.10 1190.10 L 1167.60 1193.70 L 1161.30 1197.80 L 1156.10 1201.60 L 1152.00 1205.20 L 1148.20 1209.10 L 1145.20 1212.80 L 1141.00 1219.70 L 1138.70 1225.90 L 1137.90 1230.30 L 1137.80 1233.80 L 1138.00 1237.00 L 1139.00 1241.00 L 1424.00 1241.00 L 1424.90 1230.10 L 1425.80 1225.20 L 1427.10 1220.70 L 1429.40 1214.80 L 1432.00 1209.50 L 1434.90 1204.70 L 1438.20 1200.10 L 1445.00 1192.60 L 1450.40 1187.90 L 1455.10 1184.30 L 1459.70 1181.40 L 1466.00 1178.00 L 1470.50 1172.70 L 1473.60 1170.10 L 1482.40 1164.40 L 1495.00 1158.20 L 1517.20 1149.60 L 1554.30 1136.10 L 1574.70 1127.70 L 1589.70 1120.10 L 1596.80 1115.80 L 1603.20 1111.30 L 1609.00 1106.70 L 1613.10 1102.80 L 1616.60 1098.80 L 1619.80 1094.60 L 1622.40 1090.30 L 1624.60 1085.70 L 1626.30 1080.80 L 1627.40 1075.70 L 1627.90 1070.20 L 1627.50 1061.30 L 1625.30 1051.20 L 1623.50 1045.60 L 1620.80 1039.20 L 1617.20 1032.20 L 1612.70 1024.40 L 1607.00 1016.00 L 1593.20 1008.40 L 1579.00 1001.10 L 1564.40 994.10 L 1549.30 987.40 L 1533.80 981.00 L 1514.30 973.70 L 1494.30 966.80 L 1473.60 960.40 L 1452.40 954.40 L 1431.10 948.90 L 1409.40 943.80 L 1387.20 939.20 L 1364.40 934.90 L 1318.80 927.50 L 1271.70 921.50 L 1240.10 918.20 L 1208.10 915.40 L 1175.80 913.00 L 1143.50 911.20 L 1078.50 908.50 L 1029.80 907.40 L 981.50 906.80 L 933.40 906.60 L 750.90 907.60 L 709.00 907.50 L 668.00 907.00 L 630.00 906.00 L 605.00 905.00 L 581.60 903.60 L 559.80 901.90 L 527.80 898.40 L 500.00 894.00 L 483.80 890.70 L 469.40 887.20 L 456.50 883.60 L 445.20 879.90 L 435.70 876.30 L 419.70 869.20 L 407.00 861.90 L 400.90 857.70 L 395.60 853.40 L 391.00 849.20 L 387.00 845.00 L 383.60 840.70 L 380.50 836.10 L 377.90 831.40 L 375.90 826.60 L 374.30 821.80 L 373.10 817.00 L 372.30 810.80 L 372.10 804.40 L 372.60 797.90 L 373.60 791.30 L 375.20 784.80 L 377.30 778.10 L 379.90 771.30 L 383.20 764.20 L 387.90 755.20 L 393.50 745.90 L 399.80 736.50 L 406.60 727.30 L 421.80 708.70 L 434.10 695.00 L 447.10 681.40 L 473.80 655.30 L 500.00 631.00 L 510.60 621.70 L 536.40 600.50 L 581.30 565.10 L 579.20 566.80 L 581.60 551.50 L 584.50 536.50 L 587.90 521.60 L 591.80 506.80 L 596.10 492.10 L 600.90 477.50 L 606.10 463.10 L 611.80 448.90 L 617.90 434.90 L 624.50 421.10 L 631.50 407.50 L 639.00 394.00" fill="#3a3a77" fill-rule="nonzero" node-id="137" stroke="none" target-height="848.4" target-width="1517.9" target-x="110" target-y="392.6"></path><path d="M 749.00 1241.00 L 810.00 1051.50 L 886.10 1091.10 L 915.00 1241.00 L 749.00 1241.00 Z" fill="url(#未命名的渐变_49-2)" fill-rule="nonzero" node-id="139" stroke="#5d83ff" stroke-linecap="round" stroke-width="18" target-height="189.5" target-width="166" target-x="749" target-y="1051.5"></path><path d="M 1512.50 1286.00 L 234.50 1286.00 L 231.40 1285.80 L 225.70 1284.20 L 223.20 1282.90 L 218.60 1279.40 L 215.10 1274.80 L 213.80 1272.30 L 212.20 1266.60 L 212.00 1263.50 L 212.20 1260.40 L 213.80 1254.70 L 215.10 1252.20 L 218.60 1247.60 L 223.20 1244.10 L 225.70 1242.80 L 231.40 1241.20 L 234.50 1241.00 L 1512.50 1241.00 L 1515.60 1241.20 L 1521.30 1242.80 L 1523.80 1244.10 L 1528.40 1247.60 L 1531.90 1252.20 L 1533.20 1254.70 L 1534.20 1257.50 L 1534.80 1260.40 L 1535.00 1263.50 L 1534.80 1266.60 L 1533.20 1272.30 L 1531.90 1274.80 L 1528.40 1279.40 L 1523.80 1282.90 L 1521.30 1284.20 L 1515.60 1285.80 L 1512.50 1286.00 Z" fill="none" node-id="141" stroke="#d3dcf4" stroke-linecap="butt" stroke-width="20" target-height="45" target-width="1323" target-x="212" target-y="1241"></path><path d="M 1148.00 1327.00 L 1222.90 1327.00 L 1270.30 1326.50 L 1282.20 1326.90 L 1301.60 1328.70 L 1309.40 1330.20 L 1313.20 1331.40 L 1316.70 1332.90 L 1318.70 1334.20 L 1320.00 1335.60 L 1320.90 1337.00 L 1321.60 1340.20 L 1320.80 1344.60 L 1316.20 1355.50 L 1313.60 1363.60 L 1312.90 1367.80 L 1312.90 1372.30 L 1313.40 1375.50 L 1314.40 1378.10 L 1315.80 1380.30 L 1317.50 1382.20 L 1319.60 1383.80 L 1322.10 1385.20 L 1326.00 1386.80 L 1330.40 1387.90 L 1343.50 1389.90 L 1360.10 1390.90 L 1370.10 1390.80 L 1410.00 1389.00 L 1412.20 1388.70 L 1414.10 1388.00 L 1415.60 1387.00 L 1417.70 1384.10 L 1418.60 1380.60 L 1418.30 1377.10 L 1417.70 1375.40 L 1415.60 1372.70 L 1414.10 1371.80 L 1412.30 1371.20 L 1410.00 1371.00 L 1374.00 1372.60 L 1354.10 1372.60 L 1338.20 1371.10 L 1328.00 1368.00 L 1330.50 1370.90 L 1331.00 1371.80 L 1330.90 1372.30 L 1331.10 1367.20 L 1331.80 1364.40 L 1338.00 1349.50 L 1339.10 1345.70 L 1339.70 1341.60 L 1339.70 1337.40 L 1339.10 1333.70 L 1338.00 1330.40 L 1336.40 1327.40 L 1334.50 1324.70 L 1332.10 1322.20 L 1326.50 1318.20 L 1318.20 1314.50 L 1312.90 1312.90 L 1302.30 1310.90 L 1290.60 1309.70 L 1278.90 1309.00 L 1267.10 1308.80 L 1148.00 1309.00 L 1145.70 1309.30 L 1143.90 1309.90 L 1141.20 1312.20 L 1139.70 1315.30 L 1139.30 1318.90 L 1140.30 1322.30 L 1142.40 1325.10 L 1143.90 1326.10 L 1145.70 1326.70 L 1148.00 1327.00 Z" fill="#d3dcf4" fill-rule="nonzero" node-id="143" stroke="none" target-height="82.099976" target-width="279.29993" target-x="1139.3" target-y="1308.8"></path><path d="M 400.00 1335.00 L 660.00 1335.00 L 662.30 1334.70 L 664.10 1334.10 L 665.60 1333.10 L 666.80 1331.80 L 668.30 1328.70 L 668.70 1325.10 L 667.70 1321.70 L 665.60 1318.90 L 664.10 1317.90 L 662.30 1317.30 L 660.00 1317.00 L 400.00 1317.00 L 397.70 1317.30 L 395.90 1317.90 L 393.20 1320.20 L 391.70 1323.30 L 391.30 1326.90 L 392.30 1330.30 L 394.40 1333.10 L 395.90 1334.10 L 397.70 1334.70 L 400.00 1335.00 Z" fill="#d3dcf4" fill-rule="nonzero" node-id="145" stroke="none" target-height="18" target-width="277.40002" target-x="391.3" target-y="1317"></path><path d="M 1022.00 586.00 L 1139.00 576.00 L 1082.00 672.00 L 1022.00 586.00 Z" fill="url(#未命名的渐变_49-3)" fill-rule="nonzero" node-id="147" stroke="#5d83ff" stroke-linecap="round" stroke-width="18" target-height="96" target-width="117" target-x="1022" target-y="576"></path><path d="M 1203.00 566.00 L 1202.80 570.50 L 1202.10 574.70 L 1201.10 578.80 L 1199.60 582.70 L 1197.80 586.50 L 1195.60 590.10 L 1190.40 596.40 L 1187.30 599.20 L 1184.10 601.60 L 1176.70 605.60 L 1172.80 607.10 L 1168.70 608.10 L 1164.50 608.80 L 1160.00 609.00 L 1155.50 608.80 L 1151.30 608.10 L 1147.20 607.10 L 1139.50 603.80 L 1132.70 599.20 L 1126.80 593.30 L 1122.20 586.50 L 1120.40 582.70 L 1118.90 578.80 L 1117.90 574.70 L 1117.20 570.50 L 1117.00 566.00 L 1117.20 561.50 L 1117.90 557.30 L 1118.90 553.20 L 1120.40 549.30 L 1122.20 545.50 L 1126.80 538.70 L 1129.60 535.60 L 1132.70 532.80 L 1135.90 530.40 L 1139.50 528.20 L 1143.30 526.40 L 1147.20 524.90 L 1151.30 523.90 L 1155.50 523.20 L 1160.00 523.00 L 1164.50 523.20 L 1168.70 523.90 L 1172.80 524.90 L 1176.70 526.40 L 1184.10 530.40 L 1190.40 535.60 L 1195.60 541.90 L 1199.60 549.30 L 1201.10 553.20 L 1202.10 557.30 L 1202.80 561.50 L 1203.00 566.00 Z" fill="#fe9f39" fill-rule="nonzero" node-id="149" stroke="none" target-height="86" target-width="86" target-x="1117" target-y="523"></path><path d="M 959.00 164.00 L 897.00 122.00 L 885.00 206.00 L 959.00 164.00 Z" fill="#d3dcf4" fill-rule="nonzero" node-id="151" stroke="none" target-height="84" target-width="74" target-x="885" target-y="122"></path><path d="M 1034.00 182.00 L 899.00 237.00 L 1034.00 274.00 L 1034.00 182.00 Z" fill="#d3dcf4" fill-rule="nonzero" node-id="153" stroke="none" target-height="92" target-width="135" target-x="899" target-y="182"></path><g node-id="156"><g node-id="158"><g node-id="161"><path d="M 443.70 1200.10 L 410.90 1181.20 L 409.90 1180.40 L 409.40 1179.50 L 409.30 1178.50 L 410.30 1176.60 L 411.60 1175.70 L 442.80 1157.70 L 446.00 1156.50 L 449.40 1156.40 L 451.10 1156.70 L 485.20 1176.20 L 486.20 1177.00 L 486.70 1177.90 L 486.80 1178.90 L 485.80 1180.80 L 484.50 1181.70 L 453.30 1199.70 L 451.00 1200.70 L 448.40 1201.10 L 446.60 1201.00 L 443.70 1200.10 Z" fill="#c9cfe5" fill-opacity="0.3" fill-rule="nonzero" group-id="2,4,7" id="路径-4" node-id="45" stroke="none" target-height="44.69995" target-width="77.5" target-x="409.3" target-y="1156.4"></path></g><path d="M 486.80 1163.10 L 486.80 819.80 L 409.30 819.80 L 409.40 1164.00 L 410.90 1165.60 L 443.70 1184.50 L 446.60 1185.40 L 448.40 1185.50 L 451.00 1185.10 L 453.30 1184.10 L 484.50 1166.10 L 485.60 1165.40 L 486.30 1164.40 L 486.80 1163.20 Z" fill="url(#未命名的渐变_17)" fill-rule="nonzero" group-id="2,4" id="路径-5" node-id="46" stroke="none" target-height="365.7" target-width="77.5" target-x="409.3" target-y="819.8"></path><path d="M 443.70 841.30 L 410.90 822.40 L 409.90 821.60 L 409.40 820.70 L 409.30 819.70 L 410.30 817.90 L 411.60 816.90 L 442.80 798.90 L 446.00 797.70 L 449.40 797.60 L 451.10 797.90 L 485.20 817.40 L 486.20 818.30 L 486.70 819.10 L 486.80 820.10 L 485.80 822.00 L 484.50 822.90 L 453.30 840.90 L 451.00 841.90 L 448.40 842.30 L 446.60 842.20 L 443.70 841.30 Z" fill="#fafbfd" fill-rule="nonzero" group-id="2,4" id="路径-6" node-id="47" stroke="none" target-height="44.700012" target-width="77.5" target-x="409.3" target-y="797.6"></path></g><g node-id="159"><g node-id="162"><path d="M 380.50 1246.00 L 347.60 1227.10 L 346.60 1226.20 L 346.00 1225.30 L 346.00 1224.40 L 347.00 1222.50 L 348.30 1221.50 L 379.60 1203.50 L 382.80 1202.40 L 386.30 1202.20 L 387.90 1202.50 L 422.10 1222.00 L 423.10 1222.90 L 423.60 1223.80 L 423.70 1224.70 L 422.70 1226.60 L 421.40 1227.60 L 390.10 1245.60 L 387.80 1246.60 L 385.10 1247.00 L 383.40 1246.90 L 380.50 1246.00 Z" fill="#a0b3f8" fill-opacity="0.3" fill-rule="nonzero" group-id="2,5,8" id="路径-7" node-id="49" stroke="none" target-height="44.80005" target-width="77.70001" target-x="346" target-y="1202.2"></path></g><path d="M 423.70 1209.00 L 423.70 1092.70 L 346.00 1092.70 L 346.20 1209.80 L 347.00 1211.10 L 347.70 1211.50 L 380.50 1230.40 L 383.40 1231.30 L 385.20 1231.30 L 387.80 1230.90 L 390.20 1230.00 L 421.30 1212.00 L 422.90 1210.80 L 423.70 1209.10 Z" fill="url(#未命名的渐变_23-2)" fill-rule="nonzero" group-id="2,5" id="路径-8" node-id="50" stroke="none" target-height="138.6001" target-width="77.70001" target-x="346" target-y="1092.7"></path><path d="M 380.50 1114.20 L 347.60 1095.30 L 346.60 1094.50 L 346.00 1093.60 L 346.00 1092.60 L 347.00 1090.70 L 348.30 1089.80 L 379.50 1071.80 L 382.70 1070.60 L 386.20 1070.50 L 387.80 1070.80 L 422.00 1090.30 L 423.10 1091.20 L 423.60 1092.10 L 423.70 1093.00 L 422.60 1094.90 L 421.30 1095.90 L 390.10 1113.90 L 387.80 1114.80 L 385.10 1115.20 L 383.40 1115.10 L 380.50 1114.20 Z" fill="url(#未命名的渐变_49-4)" fill-rule="nonzero" group-id="2,5" id="路径-9" node-id="51" stroke="none" target-height="44.69995" target-width="77.70001" target-x="346" target-y="1070.5"></path></g><g node-id="160"><g node-id="163"><path d="M 573.70 1246.10 L 506.80 1207.60 L 504.20 1205.40 L 503.40 1202.80 L 503.60 1201.50 L 505.00 1198.80 L 508.20 1196.30 L 571.80 1159.70 L 574.90 1158.30 L 578.30 1157.30 L 581.90 1156.90 L 585.40 1157.00 L 589.70 1158.00 L 658.30 1197.40 L 660.90 1199.70 L 661.70 1202.20 L 661.60 1203.60 L 660.10 1206.20 L 656.90 1208.80 L 593.40 1245.30 L 590.30 1246.70 L 586.80 1247.60 L 583.20 1248.00 L 577.50 1247.50 L 573.70 1246.10 Z" fill="#a0b3f8" fill-opacity="0.3" fill-rule="nonzero" group-id="2,6,9" id="路径-10" node-id="53" stroke="none" target-height="91.099976" target-width="158.30002" target-x="503.4" target-y="1156.9"></path></g><path d="M 661.70 1170.70 L 661.70 781.70 L 503.40 781.70 L 503.60 1172.20 L 504.20 1173.40 L 505.20 1174.60 L 506.80 1175.80 L 573.70 1214.20 L 577.50 1215.70 L 583.20 1216.20 L 586.80 1215.80 L 590.30 1214.80 L 593.40 1213.40 L 656.90 1176.80 L 660.30 1174.00 L 661.30 1172.40 L 661.70 1170.90 Z" fill="url(#未命名的渐变_23-3)" fill-rule="nonzero" group-id="2,6" id="路径-11" node-id="54" stroke="none" target-height="434.49994" target-width="158.30002" target-x="503.4" target-y="781.7"></path><path d="M 573.70 825.60 L 506.80 787.10 L 504.20 784.80 L 503.40 782.30 L 503.60 781.00 L 505.00 778.30 L 508.20 775.80 L 571.80 739.20 L 574.90 737.80 L 578.30 736.80 L 581.90 736.40 L 587.70 736.90 L 591.40 738.40 L 658.30 776.90 L 660.90 779.10 L 661.70 781.70 L 661.60 783.00 L 660.10 785.70 L 656.90 788.20 L 593.40 824.80 L 590.30 826.20 L 586.80 827.10 L 583.20 827.50 L 577.50 827.00 L 573.70 825.60 Z" fill="url(#未命名的渐变_49-5)" fill-rule="nonzero" group-id="2,6" id="路径-12" node-id="55" stroke="none" target-height="91.099976" target-width="158.30002" target-x="503.4" target-y="736.4"></path></g></g></svg>